# xmcd
#
# Track frame offsets: 
#        150
#        21885
#        36309
#        53688
#        67411
#        83088
#        100438
#        117334
#        129496
#        145334
#        156069
#        178039
#        196342
#        210403
#        223545
#        238651
#        252698
#        265609
#        283523
#        304641
#        332558
#
# Disc length: 4746 seconds
#
# Revision: 0
# Processed by: cddbd v1.5.1PL0 Copyright (c) Steve Scherf et al.
# Submitted via: ExactAudioCopy v0.95a5
#
DISCID=39128815
DTITLE=Jones, Norah - Come Away With Me, Hamburg!
DYEAR=2003
DGENRE=JPop
TTITLE0=Nightingale
TTITLE1=One Flight Down
TTITLE2=Feelin The Same Way
TTITLE3=Seven Years
TTITLE4=Come Away With Me
TTITLE5=What Am I To You
TTITLE6=Peace
TTITLE7=Painter Song
TTITLE8=Lonestar
TTITLE9=The Worst
TTITLE10=I've Got To See You Again
TTITLE11=Don't Know Why
TTITLE12=Something Is Calling You
TTITLE13=Long Day Is Over
TTITLE14=Don't Know Why (Bonus)
TTITLE15=Come Away With Me (Bonus)
TTITLE16=Lonestar (Bonus)
TTITLE17=Going Down The Road To See Bessie Smith (Bonus)
TTITLE18=Crazy (Bonus)
TTITLE19=The Nearness Of You (Bonus)
TTITLE20=Tennessee Waltz (Bonus)
EXTD=
EXTT0=
EXTT1=
EXTT2=
EXTT3=
EXTT4=
EXTT5=
EXTT6=
EXTT7=
EXTT8=
EXTT9=
EXTT10=
EXTT11=
EXTT12=
EXTT13=
EXTT14=
EXTT15=
EXTT16=
EXTT17=
EXTT18=
EXTT19=
EXTT20=
PLAYORDER=
